Coordinates
version=1
nRows=13
nColumns=38
inDegrees=no

Units are S.I. units (second, meters, Newtons, ...)
If the header above contains a line with 'inDegrees', this indicates whether rotational values are in degrees (yes) or radians (no).

endheader
time	pelvis_tilt	pelvis_list	pelvis_rotation	pelvis_tx	pelvis_ty	pelvis_tz	hip_flexion_r	hip_adduction_r	hip_rotation_r	knee_angle_r	ankle_angle_r	subtalar_angle_r	mtp_angle_r	hip_flexion_l	hip_adduction_l	hip_rotation_l	knee_angle_l	ankle_angle_l	subtalar_angle_l	mtp_angle_l	lumbar_extension	lumbar_bending	lumbar_rotation	arm_flex_r	arm_add_r	arm_rot_r	elbow_flex_r	pro_sup_r	wrist_flex_r	wrist_dev_r	arm_flex_l	arm_add_l	arm_rot_l	elbow_flex_l	pro_sup_l	wrist_flex_l	wrist_dev_l
0	0.716543	1.49671	0.829366	0.792636	0.0768739	1.00405	0.0860813	0.0206739	-0.156525	0.122665	0.0286867	0	0	0.0108454	-0.109564	-0.181797	0	-0.0405113	0	0	0.0808788	0.106711	0.0543864	-0.0480862	-0.229488	0.176364	0.462448	1.32293	0	0	-0.0500721	-0.135085	0.280319	0.536473	1.44452	0	0
0.01	0.720974	1.49643	0.824881	0.792397	0.0768577	1.00402	0.0855243	0.0210286	-0.155861	0.121431	0.0276536	0	0	0.00976235	-0.109713	-0.180703	0	-0.0413565	0	0	0.0804197	0.107237	0.0544088	-0.0482527	-0.230344	0.178174	0.463156	1.32501	0	0	-0.0519662	-0.135543	0.28761	0.538399	1.44142	0	0
0.02	0.640977	1.50006	0.904454	0.792502	0.0769855	1.00313	0.0791044	0.0131417	-0.148845	0.108206	0.0286916	0	0	0.00910487	-0.101749	-0.179418	0	-0.0416119	0	0	0.0815828	0.0979051	0.0548626	-0.0485843	-0.227203	0.179926	0.463489	1.32684	0	0	-0.053867	-0.139831	0.292858	0.539978	1.44025	0	0
0.03	0.745038	1.49786	0.803165	0.791212	0.0769933	1.0044	0.0732896	0.0120848	-0.140648	0.101522	0.0194688	0	0	0.00627108	-0.108344	-0.178417	0	-0.0434706	0	0	0.0770635	0.108562	0.0521201	-0.0473559	-0.233	0.180716	0.46247	1.32834	0	0	-0.0497825	-0.130823	0.29784	0.526367	1.43833	0	0
0.04	0.746932	1.49773	0.800913	0.791028	0.0769554	1.00438	0.0727209	0.0124594	-0.138392	0.100775	0.019206	0	0	0.00626145	-0.108385	-0.179059	0	-0.0431634	0	0	0.0765621	0.108638	0.0523456	-0.0470892	-0.233272	0.181647	0.462222	1.32972	0	0	-0.0496403	-0.130452	0.304875	0.523737	1.43505	0	0
0.05	0.543034	1.50316	1.00172	0.791559	0.0769456	1.00239	0.0730886	-0.00031076	-0.124664	0.0928202	0.0257836	0	0	0.0100938	-0.0920357	-0.179808	0	-0.0412633	0	0	0.0821626	0.08897	0.0550912	-0.0483782	-0.22636	0.182875	0.463624	1.33083	0	0	-0.0547843	-0.140638	0.310253	0.533468	1.43274	0	0
0.06	0.546328	1.50304	0.998468	0.791346	0.0768927	1.00238	0.0731454	-4.02516e-05	-0.124872	0.0932799	0.0260992	0	0	0.0100442	-0.0921263	-0.180007	0	-0.0414541	0	0	0.0816477	0.0890763	0.0546649	-0.0479664	-0.226589	0.183363	0.46345	1.33162	0	0	-0.0539952	-0.139057	0.312882	0.528072	1.42966	0	0
0.07	0.550329	1.50294	0.994529	0.791143	0.0768515	1.0024	0.0730493	0.000308732	-0.125043	0.0934881	0.0262184	0	0	0.00952049	-0.0921416	-0.179453	0	-0.0421392	0	0	0.0811256	0.089213	0.0541686	-0.0476766	-0.226613	0.183531	0.463133	1.33078	0	0	-0.053365	-0.13742	0.314353	0.522837	1.42746	0	0
0.08	0.552971	1.50287	0.991882	0.790941	0.0768089	1.00242	0.0731364	0.000520521	-0.125432	0.093952	0.0264741	0	0	0.00938716	-0.0921424	-0.17972	0	-0.0423345	0	0	0.0806458	0.0892003	0.0537216	-0.0475006	-0.226365	0.182694	0.462842	1.33009	0	0	-0.0529121	-0.135909	0.315018	0.518237	1.42684	0	0
0.09	0.556783	1.50285	0.988106	0.790746	0.0767641	1.00245	0.0730661	0.000859421	-0.125997	0.0942732	0.0264793	0	0	0.00875163	-0.0921076	-0.179329	0	-0.0427796	0	0	0.0800029	0.0891273	0.0531343	-0.0473246	-0.226116	0.18151	0.462758	1.33003	0	0	-0.0526967	-0.134532	0.31483	0.514315	1.42715	0	0
0.1	0.76242	1.49867	0.788021	0.789764	0.0764266	1.00436	0.0742886	0.0160382	-0.136278	0.109496	0.0202449	0	0	0.0114864	-0.107812	-0.176357	0	-0.0453638	0	0	0.0722473	0.106804	0.0487716	-0.0457662	-0.232559	0.17977	0.461409	1.32873	0	0	-0.0461174	-0.12207	0.311305	0.496185	1.42668	0	0
0.11	0.564362	1.5044	0.983123	0.790355	0.0763694	1.00249	0.0740543	0.0036378	-0.123871	0.0998836	0.024688	0	0	0.0154898	-0.0921026	-0.177366	0	-0.0434648	0	0	0.0773317	0.0873242	0.0510223	-0.0475791	-0.225245	0.178914	0.463617	1.32756	0	0	-0.0522808	-0.132987	0.314563	0.508511	1.42534	0	0
0.12	0.761094	1.49865	0.789258	0.789589	0.0760019	1.00443	0.0769684	0.0153288	-0.141093	0.115868	0.0234101	0	0	0.0115352	-0.107256	-0.17599	0	-0.0463605	0	0	0.0712806	0.105863	0.0477516	-0.0461015	-0.231855	0.176814	0.462382	1.32619	0	0	-0.0469088	-0.12052	0.309423	0.491266	1.4276	0	0
